<svg width="120" height="120" viewBox="0 0 120 120" fill="none" xmlns="http://www.w3.org/2000/svg">
<g clip-path="url(#clip0_3_442)">
<path d="M105.6 110.4C110.902 110.4 115.2 106.102 115.2 100.8C115.2 95.4983 110.902 91.2002 105.6 91.2002C100.298 91.2002 96 95.4983 96 100.8C96 106.102 100.298 110.4 105.6 110.4Z" fill="#2D83B6"/>
<path d="M36.0004 110.4C41.3023 110.4 45.6004 106.102 45.6004 100.8C45.6004 95.4983 41.3023 91.2002 36.0004 91.2002C30.6985 91.2002 26.4004 95.4983 26.4004 100.8C26.4004 106.102 30.6985 110.4 36.0004 110.4Z" fill="#2D83B6"/>
<path d="M112.8 79.1999H37.8504L39.4512 76.6031C40.1376 75.4895 40.3392 74.1431 40.0104 72.8759L38.448 66.8615L108.007 63.2471C110.645 63.1127 112.8 60.8399 112.8 58.1999V26.3999C112.8 23.7599 110.64 21.5999 108 21.5999H26.6856L25.7472 17.9927C25.4799 16.9639 24.8786 16.0529 24.0377 15.4027C23.1967 14.7525 22.1638 14.3998 21.1008 14.3999H4.8C3.52696 14.3999 2.30606 14.9056 1.40589 15.8058C0.505713 16.706 0 17.9269 0 19.1999C0 20.4729 0.505713 21.6938 1.40589 22.594C2.30606 23.4942 3.52696 23.9999 4.8 23.9999H17.3904L30.2064 73.3079L25.1664 81.4799C24.7181 82.207 24.4722 83.0407 24.454 83.8947C24.4359 84.7487 24.6462 85.592 25.0632 86.3375C25.4785 87.0839 26.0858 87.7057 26.8221 88.1387C27.5584 88.5716 28.397 88.7999 29.2512 88.7999H112.8C114.073 88.7999 115.294 88.2942 116.194 87.394C117.094 86.4938 117.6 85.2729 117.6 83.9999C117.6 82.7269 117.094 81.506 116.194 80.6058C115.294 79.7056 114.073 79.1999 112.8 79.1999Z" fill="#2D83B6"/>
</g>
<defs>
<clipPath id="clip0_3_442">
<rect width="120" height="120" fill="white"/>
</clipPath>
</defs>
</svg>
