<svg width="100" height="101" viewBox="0 0 100 101" fill="none" xmlns="http://www.w3.org/2000/svg">
<path d="M17.875 0.371608C18.5116 0.677687 19.0488 1.15733 19.4247 1.7553C19.8007 2.35328 20.0001 3.04527 20 3.75161C20 7.90161 21.56 10.2916 23.515 13.2016L23.66 13.4116C25.32 15.8816 27.5 19.1166 27.5 23.7516C27.5 28.4816 25.115 32.6516 21.48 35.1266C22.435 35.9266 23.28 36.9116 24.01 38.0916C26.39 41.9416 27.5 47.8266 27.5 56.2766C27.5 64.8366 26.35 75.1166 24.475 83.3266C23.545 87.4066 22.39 91.1716 21.015 93.9966C20.3658 95.4022 19.5059 96.7005 18.465 97.8466C17.435 98.9016 15.85 100.027 13.75 100.027C11.65 100.027 10.065 98.9016 9.04 97.8466C7.99605 96.7028 7.13583 95.4041 6.49001 93.9966C5.11001 91.1666 3.955 87.4066 3.025 83.3216C1.07474 74.4353 0.0608695 65.3692 4.81752e-06 56.2716C4.81752e-06 47.8216 1.11 41.9416 3.49 38.0916C4.16899 36.9741 5.02322 35.973 6.02 35.1266C4.16387 33.8664 2.64469 32.1708 1.59526 30.1878C0.54584 28.2049 -0.00187403 25.9951 4.81752e-06 23.7516C4.81752e-06 21.9116 4.32134e-06 18.7466 1.915 14.6616C3.79 10.6616 7.35501 6.06661 13.905 0.821609C14.457 0.380029 15.1227 0.103483 15.8251 0.023863C16.5275 -0.055757 17.2381 0.0647919 17.875 0.371608ZM40 64.5866C37.351 64.1423 34.7743 63.3417 32.34 62.2066C32.445 60.1766 32.5 58.1866 32.5 56.2766C32.5 54.2466 32.44 52.3066 32.31 50.4566C34.525 52.2816 37.14 53.6366 40 54.3716V42.5016C40 40.5125 40.7902 38.6048 42.1967 37.1983C43.6032 35.7918 45.5109 35.0016 47.5 35.0016H65C65.0005 31.1866 63.9098 27.451 61.8567 24.2356C59.8035 21.0202 56.8736 18.4591 53.4124 16.8544C49.9513 15.2497 46.1034 14.6684 42.3228 15.1791C38.5421 15.6898 34.9863 17.2712 32.075 19.7366C31.21 15.6666 29.2 12.6866 27.915 10.7816L27.715 10.4816C32.2073 7.31484 37.4832 5.44304 42.9669 5.07055C48.4505 4.69806 53.9311 5.83918 58.8103 8.36937C63.6896 10.8995 67.78 14.7215 70.635 19.4181C73.4901 24.1147 75 29.5053 75 35.0016H92.5C94.4891 35.0016 96.3968 35.7918 97.8033 37.1983C99.2098 38.6048 100 40.5125 100 42.5016V87.5016C100 89.4907 99.2098 91.3984 97.8033 92.8049C96.3968 94.2114 94.4891 95.0016 92.5 95.0016H47.5C45.5109 95.0016 43.6032 94.2114 42.1967 92.8049C40.7902 91.3984 40 89.4907 40 87.5016V64.5866ZM50 64.5866V85.0016H90V45.0016H73.295C71.5077 50.0455 68.4055 54.5204 64.3092 57.9636C60.2128 61.4068 55.2711 63.6933 49.995 64.5866M62.325 45.0016H50V54.3716C52.5731 53.7052 54.988 52.5336 57.1039 50.9249C59.2199 49.3163 60.9947 47.3028 62.325 45.0016Z" fill="#2D83B6"/>
</svg>
