<svg width="120" height="120" viewBox="0 0 120 120" fill="none" xmlns="http://www.w3.org/2000/svg">
<path d="M97.05 37.05L72.9 12.9C71.05 11.05 68.5 10 65.85 10H30C24.5 10 20.05 14.5 20.05 20L20 100C20 105.5 24.45 110 29.95 110H90C95.5 110 100 105.5 100 100V44.15C100 41.5 98.95 38.95 97.05 37.05ZM75 65H65V83.05C65 89.45 60 95.1 53.6 95C51.8524 94.9744 50.1346 94.5436 48.5818 93.7415C47.029 92.9394 45.6834 91.7878 44.6511 90.3775C43.6188 88.9672 42.9279 87.3365 42.6327 85.6139C42.3375 83.8912 42.4461 82.1236 42.95 80.45C44 76.85 46.95 73.9 50.6 72.9C54.1 71.95 57.4 72.65 60 74.35V60C60 57.25 62.25 55 65 55H75C77.75 55 80 57.25 80 60C80 62.75 77.75 65 75 65ZM70 45C67.25 45 65 42.75 65 40V17.5L92.5 45H70Z" fill="#2D83B6"/>
</svg>
