<svg width="141" height="141" viewBox="0 0 141 141" fill="none" xmlns="http://www.w3.org/2000/svg">
<path d="M70.5 92.5312C80.234 92.5312 88.125 84.6403 88.125 74.9062C88.125 65.1722 80.234 57.2812 70.5 57.2812C60.766 57.2812 52.875 65.1722 52.875 74.9062C52.875 84.6403 60.766 92.5312 70.5 92.5312Z" fill="#2D83B6"/>
<path d="M118.969 39.6562H102.721C101.895 39.6562 100.87 39.122 100.071 38.2793L92.9278 27.0048C92.8148 26.8259 92.6887 26.6556 92.5505 26.4953C90.083 23.6175 86.748 22.0312 83.168 22.0312H57.832C54.252 22.0312 50.917 23.6175 48.4495 26.4953C48.3113 26.6556 48.1852 26.8259 48.0722 27.0048L40.9286 38.2958C40.3172 38.9623 39.458 39.6728 38.5547 39.6728V37.4696C38.5547 36.301 38.0905 35.1803 37.2641 34.354C36.4378 33.5276 35.317 33.0634 34.1484 33.0634H27.5391C26.3705 33.0634 25.2497 33.5276 24.4234 34.354C23.597 35.1803 23.1328 36.301 23.1328 37.4696V39.6728H22.0312C18.5265 39.6764 15.1664 41.0703 12.6882 43.5485C10.21 46.0267 8.81615 49.3868 8.8125 52.8915V105.75C8.81615 109.255 10.21 112.615 12.6882 115.093C15.1664 117.571 18.5265 118.965 22.0312 118.969H118.969C122.473 118.965 125.834 117.571 128.312 115.093C130.79 112.615 132.184 109.255 132.188 105.75V52.875C132.184 49.3703 130.79 46.0102 128.312 43.532C125.834 41.0537 122.473 39.6599 118.969 39.6562ZM70.5 101.344C65.2712 101.344 60.1597 99.7932 55.8121 96.8882C51.4645 93.9832 48.0759 89.8543 46.0749 85.0234C44.0739 80.1926 43.5504 74.8769 44.5705 69.7486C45.5906 64.6202 48.1085 59.9095 51.8059 56.2121C55.5032 52.5148 60.2139 49.9968 65.3423 48.9767C70.4707 47.9566 75.7864 48.4802 80.6172 50.4812C85.448 52.4822 89.577 55.8707 92.482 60.2184C95.387 64.566 96.9375 69.6774 96.9375 74.9062C96.9295 81.9155 94.1415 88.6353 89.1853 93.5915C84.229 98.5478 77.5092 101.336 70.5 101.344Z" fill="#2D83B6"/>
</svg>
