<svg width="120" height="120" viewBox="0 0 120 120" fill="none" xmlns="http://www.w3.org/2000/svg">
<path fill-rule="evenodd" clip-rule="evenodd" d="M81.034 5.52019C71.1702 0.0325107 59.5397 -1.34228 48.6683 1.69438C37.7969 4.73104 28.5624 11.9339 22.9703 21.7389C17.3781 31.5438 15.8798 43.159 18.8008 54.062C21.7218 64.9651 28.8262 74.2756 38.5711 79.9716V90.2659C38.5711 92.5392 39.4742 94.7194 41.0816 96.3268C42.6891 97.9343 44.8693 98.8373 47.1425 98.8373H72.8568C75.1301 98.8373 77.3103 97.9343 78.9177 96.3268C80.5252 94.7194 81.4283 92.5392 81.4283 90.2659V79.9802C87.9128 76.2554 93.3053 70.8928 97.066 64.4289C100.827 57.9651 102.824 50.6269 102.857 43.1488C102.908 35.5 100.912 27.9768 97.0742 21.36C93.2367 14.7433 87.6984 9.27414 81.034 5.52019ZM59.9997 14.7945C62.9568 14.7945 65.3568 17.1945 65.3568 20.1516V23.443C67.7294 23.8902 69.9427 24.953 71.775 26.5251C73.6073 28.0971 74.9943 30.1232 75.7968 32.4002C76.0587 33.0694 76.1833 33.7845 76.1632 34.5028C76.143 35.2212 75.9785 35.9282 75.6795 36.5816C75.3805 37.2351 74.953 37.8218 74.4226 38.3066C73.8922 38.7915 73.2696 39.1647 72.592 39.404C71.9144 39.6433 71.1955 39.7438 70.4782 39.6996C69.7609 39.6553 69.0599 39.4672 68.4168 39.1464C67.7737 38.8256 67.2018 38.3787 66.735 37.8323C66.2682 37.2859 65.9161 36.6512 65.6997 35.9659C65.4886 35.3687 65.0973 34.8518 64.5799 34.4864C64.0625 34.121 63.4445 33.9252 62.8111 33.9259H56.2968C55.7645 33.9252 55.2507 34.1211 54.8539 34.4759C54.4572 34.8308 54.2054 35.3197 54.147 35.8488C54.0885 36.3779 54.2275 36.9099 54.5373 37.3428C54.8471 37.7757 55.3058 38.079 55.8254 38.1945L65.7511 40.363C68.851 41.0466 71.62 42.7792 73.5902 45.2681C75.5604 47.7571 76.611 50.8498 76.5647 54.0238C76.5183 57.1979 75.3778 60.2586 73.3358 62.689C71.2937 65.1193 68.4754 66.7703 65.3568 67.363V70.6716C65.3568 72.0924 64.7924 73.455 63.7878 74.4597C62.7831 75.4644 61.4205 76.0288 59.9997 76.0288C58.5789 76.0288 57.2163 75.4644 56.2116 74.4597C55.207 73.455 54.6425 72.0924 54.6425 70.6716V67.3716C52.272 66.9228 50.0605 65.8604 48.2286 64.2902C46.3968 62.7201 45.0086 60.6971 44.2025 58.423C43.7682 57.094 43.8707 55.6478 44.4881 54.3933C45.1055 53.1388 46.1889 52.1754 47.507 51.7088C48.825 51.2423 50.2733 51.3095 51.5425 51.8962C52.8116 52.4828 53.8011 53.5425 54.2997 54.8488C54.7283 56.0488 55.8683 56.8888 57.1968 56.8888H62.8111C63.5627 56.881 64.2853 56.5977 64.8418 56.0926C65.3984 55.5875 65.7502 54.8956 65.8305 54.1483C65.9109 53.401 65.7141 52.6502 65.2776 52.0383C64.8412 51.4265 64.1953 50.9961 63.4625 50.8288L53.5368 48.6602C50.5739 48.0113 47.9351 46.3372 46.0859 43.9329C44.2367 41.5287 43.2957 38.5487 43.429 35.5185C43.5622 32.4882 44.761 29.6023 46.8141 27.3696C48.8672 25.1369 51.6426 23.7008 54.6511 23.3145V20.143C54.6511 17.1859 57.0425 14.7945 59.9997 14.7945ZM42.8568 107.057C41.1519 107.057 39.5167 107.735 38.3111 108.94C37.1055 110.146 36.4283 111.781 36.4283 113.486C36.4283 115.191 37.1055 116.826 38.3111 118.032C39.5167 119.237 41.1519 119.914 42.8568 119.914H77.1425C78.8475 119.914 80.4826 119.237 81.6882 118.032C82.8938 116.826 83.5711 115.191 83.5711 113.486C83.5711 111.781 82.8938 110.146 81.6882 108.94C80.4826 107.735 78.8475 107.057 77.1425 107.057H42.8568Z" fill="#2D83B6"/>
</svg>
