<svg width="120" height="120" viewBox="0 0 120 120" fill="none" xmlns="http://www.w3.org/2000/svg">
<g clip-path="url(#clip0_3_438)">
<path d="M15 82.5V67.5H0L0 0L90 0V15H105V45H97.5V22.5H22.5V75H67.5V82.5H15ZM15 60V15H82.5V7.5H7.5V60H15ZM30 67.5V52.5H37.5V67.5H30ZM45 67.5V37.5H52.5V67.5H45ZM60 67.5V45H67.5V67.5H60ZM97.5 52.5C100.586 52.5 103.496 53.0859 106.23 54.2578C108.965 55.4297 111.348 57.0312 113.379 59.0625C115.41 61.0938 117.031 63.4961 118.242 66.2695C119.453 69.043 120.039 71.9531 120 75C120 78.125 119.414 81.0352 118.242 83.7305C117.07 86.4258 115.469 88.8086 113.438 90.8789C111.406 92.9492 109.004 94.5703 106.23 95.7422C103.457 96.9141 100.547 97.5 97.5 97.5C95.1563 97.5 92.8711 97.1484 90.6445 96.4453C88.418 95.7422 86.3672 94.707 84.4922 93.3398L58.8867 118.887C58.1445 119.629 57.2656 120 56.25 120C55.2344 120 54.3555 119.629 53.6133 118.887C52.8711 118.145 52.5 117.266 52.5 116.25C52.5 115.234 52.8711 114.355 53.6133 113.613L79.1602 88.0078C77.793 86.1328 76.7578 84.082 76.0547 81.8555C75.3516 79.6289 75 77.3438 75 75C75 71.9141 75.5859 69.0039 76.7578 66.2695C77.9297 63.5352 79.5313 61.1523 81.5625 59.1211C83.5938 57.0898 85.9766 55.4688 88.7109 54.2578C91.4453 53.0469 94.375 52.4609 97.5 52.5ZM97.5 90C99.5703 90 101.504 89.6094 103.301 88.8281C105.098 88.0469 106.699 86.9727 108.105 85.6055C109.512 84.2383 110.586 82.6562 111.328 80.8594C112.07 79.0625 112.461 77.1094 112.5 75C112.5 72.9297 112.109 70.9961 111.328 69.1992C110.547 67.4023 109.473 65.8008 108.105 64.3945C106.738 62.9883 105.156 61.9141 103.359 61.1719C101.563 60.4297 99.6094 60.0391 97.5 60C95.4297 60 93.4961 60.3906 91.6992 61.1719C89.9024 61.9531 88.3008 63.0273 86.8945 64.3945C85.4883 65.7617 84.4141 67.3438 83.6719 69.1406C82.9297 70.9375 82.5391 72.8906 82.5 75C82.5 77.0703 82.8906 79.0039 83.6719 80.8008C84.4531 82.5977 85.5274 84.1992 86.8945 85.6055C88.2617 87.0117 89.8438 88.0859 91.6406 88.8281C93.4375 89.5703 95.3906 89.9609 97.5 90Z" fill="#2D83B6"/>
</g>
<defs>
<clipPath id="clip0_3_438">
<rect width="120" height="120" fill="white"/>
</clipPath>
</defs>
</svg>
