<svg width="113" height="113" viewBox="0 0 113 113" fill="none" xmlns="http://www.w3.org/2000/svg">
<g clip-path="url(#clip0_3_434)">
<path d="M87.3102 15.4051L71.9051 0L59.0602 0L74.4652 15.4051H87.3102ZM5.14238 0L0 0L0 15.4051H20.5475L5.14238 0ZM53.9398 15.4051L38.5127 0L25.6678 0L41.0729 15.4051H53.9398ZM92.4525 35.9525H71.9051L87.3102 20.5475H74.4652L59.0602 35.9525H38.5127L53.9178 20.5475H41.0729L25.6678 35.9525H5.14238L20.5475 20.5475H0L0 102.737C0 108.387 4.6127 113 10.2627 113H102.715C108.387 113 112.978 108.387 112.978 102.737V20.5475H107.836L92.4525 35.9525ZM41.0949 97.5949V51.3576L82.1898 74.4652L41.0949 97.5949ZM92.4525 0L107.858 15.4051H113V0L92.4525 0Z" fill="#2D83B6"/>
</g>
<defs>
<clipPath id="clip0_3_434">
<rect width="113" height="113" fill="white"/>
</clipPath>
</defs>
</svg>
